<svg width="50" height="50" viewBox="0 0 50 50" fill="none" xmlns="http://www.w3.org/2000/svg">
<path d="M11.1813 15.625H0V50H11.1813V15.625Z" fill="#215299"/>
<path d="M41.6375 16.0281C41.5188 15.9906 41.4063 15.95 41.2813 15.9156C41.1313 15.8812 40.9812 15.8531 40.8281 15.8281C40.2344 15.7094 39.5844 15.625 38.8219 15.625C32.3031 15.625 28.1688 20.3656 26.8063 22.1969V15.625H15.625V50H26.8063V31.25C26.8063 31.25 35.2563 19.4812 38.8219 28.125C38.8219 35.8406 38.8219 50 38.8219 50H50V26.8031C50 21.6094 46.4406 17.2813 41.6375 16.0281Z" fill="#215299"/>
<path d="M5.46875 10.9375C8.48906 10.9375 10.9375 8.48906 10.9375 5.46875C10.9375 2.44844 8.48906 0 5.46875 0C2.44844 0 0 2.44844 0 5.46875C0 8.48906 2.44844 10.9375 5.46875 10.9375Z" fill="#215299"/>
</svg>
