<svg width="142" height="55" viewBox="0 0 142 55" fill="none" xmlns="http://www.w3.org/2000/svg">
<g clip-path="url(#clip0)">
<path d="M55 10.4466C52.9547 11.3438 50.7753 11.9384 48.5031 12.2272C50.8406 10.8316 52.6247 8.63844 53.4634 5.995C51.2841 7.29437 48.8778 8.21219 46.3134 8.72438C44.2441 6.52094 41.2947 5.15625 38.0772 5.15625C31.8347 5.15625 26.8091 10.2231 26.8091 16.4347C26.8091 17.3284 26.8847 18.1878 27.0703 19.0059C17.6963 18.5487 9.40156 14.0559 3.82937 7.21188C2.85656 8.89969 2.28594 10.8316 2.28594 12.9113C2.28594 16.8163 4.29688 20.2778 7.29437 22.2819C5.48281 22.2475 3.70562 21.7216 2.2 20.8931C2.2 20.9275 2.2 20.9722 2.2 21.0169C2.2 26.4962 6.10844 31.0475 11.2337 32.0959C10.3159 32.3469 9.31562 32.4672 8.2775 32.4672C7.55562 32.4672 6.82687 32.4259 6.14281 32.2747C7.60375 36.74 11.7494 40.0228 16.6788 40.1294C12.8425 43.1303 7.97156 44.9384 2.69844 44.9384C1.77375 44.9384 0.886875 44.8972 0 44.7837C4.99469 48.0047 10.9141 49.8438 17.2975 49.8438C38.0462 49.8438 49.39 32.6562 49.39 17.7581C49.39 17.2597 49.3728 16.7784 49.3487 16.3006C51.5866 14.7125 53.4669 12.7291 55 10.4466Z" fill="#1DA1F2"/>
</g>
<path d="M66.1885 39.1373C66.0889 40.5143 65.5791 41.5983 64.6592 42.3893C63.7451 43.1803 62.5381 43.5758 61.0381 43.5758C59.3975 43.5758 58.1055 43.025 57.1621 41.9235C56.2246 40.816 55.7559 39.2985 55.7559 37.3707V36.5885C55.7559 35.358 55.9727 34.274 56.4062 33.3365C56.8398 32.399 57.458 31.6813 58.2607 31.1832C59.0693 30.6793 60.0068 30.4274 61.0732 30.4274C62.5498 30.4274 63.7393 30.8229 64.6416 31.6139C65.5439 32.4049 66.0654 33.5153 66.2061 34.9449H63.5693C63.5049 34.1188 63.2734 33.5211 62.875 33.152C62.4824 32.777 61.8818 32.5895 61.0732 32.5895C60.1943 32.5895 59.5352 32.9059 59.0957 33.5387C58.6621 34.1656 58.4395 35.1412 58.4277 36.4655V37.4323C58.4277 38.8151 58.6357 39.8258 59.0518 40.4645C59.4736 41.1031 60.1357 41.4225 61.0381 41.4225C61.8525 41.4225 62.459 41.2379 62.8574 40.8688C63.2617 40.4938 63.4932 39.9166 63.5518 39.1373H66.1885ZM75.1445 40.7633H70.5215L69.6426 43.4H66.8389L71.6025 30.6031H74.0459L78.8359 43.4H76.0322L75.1445 40.7633ZM71.2334 38.6276H74.4326L72.8242 33.8375L71.2334 38.6276ZM84.7686 38.7155H82.668V43.4H80.0312V30.6031H84.7861C86.2979 30.6031 87.4639 30.9401 88.2842 31.6139C89.1045 32.2877 89.5146 33.2399 89.5146 34.4703C89.5146 35.3434 89.3242 36.0729 88.9434 36.6588C88.5684 37.2389 87.9971 37.7018 87.2295 38.0475L89.998 43.277V43.4H87.168L84.7686 38.7155ZM82.668 36.5797H84.7949C85.457 36.5797 85.9697 36.4127 86.333 36.0787C86.6963 35.7389 86.8779 35.2731 86.8779 34.6813C86.8779 34.0778 86.7051 33.6031 86.3594 33.2574C86.0195 32.9117 85.4951 32.7389 84.7861 32.7389H82.668V36.5797ZM99.2266 37.8541H94.1641V41.2819H100.105V43.4H91.5273V30.6031H100.088V32.7389H94.1641V35.7887H99.2266V37.8541ZM109.352 37.8541H104.289V41.2819H110.23V43.4H101.652V30.6031H110.213V32.7389H104.289V35.7887H109.352V37.8541ZM116.515 38.7155H114.414V43.4H111.777V30.6031H116.532C118.044 30.6031 119.21 30.9401 120.03 31.6139C120.851 32.2877 121.261 33.2399 121.261 34.4703C121.261 35.3434 121.07 36.0729 120.689 36.6588C120.314 37.2389 119.743 37.7018 118.976 38.0475L121.744 43.277V43.4H118.914L116.515 38.7155ZM114.414 36.5797H116.541C117.203 36.5797 117.716 36.4127 118.079 36.0787C118.442 35.7389 118.624 35.2731 118.624 34.6813C118.624 34.0778 118.451 33.6031 118.105 33.2574C117.766 32.9117 117.241 32.7389 116.532 32.7389H114.414V36.5797ZM129.909 40.0426C129.909 39.5446 129.733 39.1637 129.382 38.9C129.03 38.6305 128.397 38.3492 127.483 38.0563C126.569 37.7574 125.846 37.4645 125.312 37.1774C123.859 36.3922 123.133 35.3346 123.133 34.0045C123.133 33.3131 123.326 32.6979 123.713 32.1588C124.105 31.6139 124.665 31.1891 125.392 30.8844C126.124 30.5797 126.944 30.4274 127.853 30.4274C128.767 30.4274 129.581 30.5944 130.296 30.9283C131.011 31.2565 131.564 31.7223 131.957 32.3258C132.355 32.9293 132.555 33.6149 132.555 34.3824H129.918C129.918 33.7965 129.733 33.3424 129.364 33.0201C128.995 32.692 128.477 32.528 127.809 32.528C127.164 32.528 126.663 32.6656 126.306 32.941C125.948 33.2106 125.77 33.568 125.77 34.0133C125.77 34.4293 125.978 34.778 126.394 35.0592C126.815 35.3405 127.434 35.6041 128.248 35.8502C129.748 36.3014 130.841 36.861 131.526 37.5289C132.212 38.1969 132.555 39.0289 132.555 40.025C132.555 41.1324 132.136 42.0026 131.298 42.6354C130.46 43.2623 129.332 43.5758 127.914 43.5758C126.93 43.5758 126.033 43.3971 125.225 43.0397C124.416 42.6764 123.798 42.1813 123.37 41.5543C122.948 40.9274 122.737 40.2008 122.737 39.3746H125.383C125.383 40.7867 126.227 41.4928 127.914 41.4928C128.541 41.4928 129.03 41.3668 129.382 41.1149C129.733 40.8571 129.909 40.4996 129.909 40.0426Z" fill="#1DA1F2"/>
<defs>
<clipPath id="clip0">
<rect width="55" height="55" fill="white"/>
</clipPath>
</defs>
</svg>
